<?xml version="1.0" encoding="utf-8"?>
<!-- Generator: Adobe Illustrator 27.3.1, SVG Export Plug-In . SVG Version: 6.00 Build 0)  -->
<svg version="1.1" id="Layer_1" xmlns="http://www.w3.org/2000/svg" xmlns:xlink="http://www.w3.org/1999/xlink" x="0px" y="0px"
	 viewBox="0 0 128 128" style="enable-background:new 0 0 128 128;" xml:space="preserve">
<style type="text/css">
	.st0{fill:#6573FF;}
	.st1{fill:#202945;}
</style>
<path class="st0" d="M9.2,48.1c0,0-0.7-38,38.5-46.3c5.2-1.1,10.5-1.2,15.6-0.2C75.9,4.1,98.5,13,101.2,44.8l-19.8-0.2
	c0,0,2.3-17.4-18.9-22.2c-6.9-1.6-14.1-1-20.3,2.3c-6,3.2-12,9.4-12.5,21.2L9.2,48.1z"/>
<path class="st1" d="M11.4,60.1L31.5,57c0,0,5.2,14.3,20.9,15.8c5.8,0.6,11.7-0.8,16.7-3.7c4.8-2.8,10.3-7.7,11.6-16l20.4,0.3
	c0,0,1.1,7.2-9.5,22.9l27.4,34.1c2.3,2.8,3.4,6.4,2.8,10c-0.5,2.6-1.8,5.3-5.1,6.5c-4,1.5-8.5,0.1-11.2-3.1L75.6,89.1
	C75.6,89.1,29.7,109.2,11.4,60.1z"/>
</svg>
